<svg xmlns="http://www.w3.org/2000/svg" width="389" height="88" fill="none" viewBox="0 0 389 88"><path fill="#fff" d="M0.106201 8.48833V16.2976L6.96244 21.2895C10.7369 24.0326 13.8187 26.3186 13.8187 26.3556C13.8187 26.4051 10.7369 28.5674 6.96244 31.1623L0.106201 35.8948V44.0994V52.304L6.9483 56.9129C10.7228 59.446 13.7904 61.5713 13.7621 61.6454C13.748 61.7072 10.6662 64.092 6.92003 66.9463L0.106201 72.1113V79.7599V87.4084H10.1432C15.6706 87.4084 20.1801 87.3714 20.1801 87.3096C20.1801 87.2602 18.1445 85.6168 15.6564 83.6398C12.1506 80.8596 11.1751 80.0317 11.3165 79.9205C13.0694 78.4624 25.6368 69.121 25.7641 69.1704C25.863 69.1952 32.0407 73.3222 39.4766 78.3142L53.0053 87.4084H63.947C69.9691 87.4084 74.8887 87.3837 74.8887 87.3467C74.8887 87.322 66.2654 81.4774 55.7336 74.3601C45.1877 67.2429 36.621 61.3736 36.6775 61.3242C38.6001 59.8167 51.2099 50.4629 51.2947 50.4876C51.3654 50.5123 64.0459 58.8282 79.4689 68.9727L107.53 87.4084H118.486C124.522 87.4084 129.456 87.3714 129.456 87.3096C129.442 87.2602 114.372 77.1032 95.938 64.7345C77.5039 52.3658 62.4061 42.2212 62.3778 42.1718C62.3495 42.1347 74.818 32.7933 90.0855 21.4131L117.864 0.728533L107.544 0.691464L97.2244 0.666751L74.3091 17.7433C61.6992 27.1464 51.2947 34.8197 51.2099 34.8197C51.111 34.8074 47.8313 32.6203 43.9296 29.9513L36.833 25.0953L37.1723 24.8234C37.3419 24.6752 44.3113 19.2507 52.6236 12.776C60.95 6.30125 67.8487 0.926235 67.9617 0.83974C68.1314 0.691464 66.6329 0.666751 58.4054 0.666751H48.6371L37.1299 9.31621C30.7967 14.0734 25.5803 17.941 25.5238 17.9286C25.4672 17.9162 22.2017 15.6797 18.2717 12.9737L11.1186 8.03115L11.882 7.35155C12.2919 6.9685 13.7056 5.65872 15.0203 4.43544C16.335 3.21216 17.7911 1.86532 18.2576 1.43285L19.1058 0.666751H9.60598H0.106201V8.48833ZM33.412 38.6873C37.6388 41.3192 41.1023 43.4939 41.1023 43.531C41.0881 43.6793 25.7641 53.2307 25.552 53.2307C25.2976 53.2307 10.0018 43.6546 10.0442 43.5186C10.0725 43.4321 25.552 33.9054 25.6651 33.9054C25.6934 33.9054 29.171 36.0554 33.412 38.6873Z"/><path fill="#fff" d="M368.322 14.7831C364.929 15.3021 362.314 16.4636 359.882 18.5395C357.055 20.949 355.754 23.3955 355.585 26.707C355.528 27.9674 355.571 28.474 355.797 29.4254C356.899 34.0591 359.84 37.1729 370.386 44.8585C376.874 49.591 378.302 51.2221 378.133 53.7551C378.048 54.9166 377.708 55.5468 376.62 56.4859C375.291 57.6474 373.623 58.2158 371.531 58.2158C368.378 58.2158 365.297 56.3005 362.879 52.8408C362.469 52.2477 362.073 51.741 362.017 51.704C361.904 51.6545 353.365 56.0534 352.941 56.3747C352.786 56.4859 353.959 58.3146 355.175 59.8839C356.263 61.2925 358.582 63.3931 360.038 64.3075C363.572 66.5316 368.223 67.5819 373.015 67.2359C377.963 66.89 381.313 65.6172 384.395 62.9236C386.544 61.0454 387.675 59.3155 388.438 56.7454C388.876 55.2626 389.032 52.7048 388.777 51.012C388.565 49.6775 387.83 47.6511 387.138 46.4896C385.724 44.1789 383.137 41.6582 379.023 38.6186C372.619 33.8861 370.584 32.3292 368.887 30.8588C366.837 29.0795 366.413 28.474 366.314 27.3125C366.23 26.3858 366.456 25.8544 367.205 25.1254C368.859 23.5191 371.969 23.2843 374.627 24.557C375.984 25.2119 377.341 26.2375 378.613 27.5596C379.235 28.2145 379.801 28.7458 379.885 28.7458C379.97 28.7458 381.808 27.3866 383.971 25.7185C387.166 23.2596 387.873 22.6541 387.76 22.4935C387.703 22.3823 386.77 21.5174 385.696 20.5659C381.978 17.3038 378.924 15.6852 374.952 14.9067C373.566 14.6225 369.764 14.5607 368.322 14.7831Z"/><path fill="#fff" d="M117.906 40.9168V66.0002H123.49H129.074L129.103 54.9536L129.145 43.8947L137.91 54.9413L146.674 66.0002H153.149C158.295 66.0002 159.609 65.9632 159.525 65.8396C159.454 65.7655 154.548 59.5502 148.597 52.0375C142.66 44.5372 137.797 38.3343 137.797 38.2602C137.797 38.1861 142.25 33.1323 147.706 27.0406C153.163 20.9489 157.63 15.9322 157.63 15.8952C157.63 15.8581 154.69 15.8457 151.099 15.8581L144.568 15.8952L136.849 24.4581L129.145 33.0087L129.103 24.4211L129.074 15.8334H123.49H117.906V40.9168Z"/><path fill="#fff" d="M167.144 33.3425C167.187 45.7482 167.243 51.2098 167.37 52.0376C168.148 57.5239 169.378 60.0322 172.643 62.7383C176.701 66.0745 182.284 67.6684 188.476 67.236C191.544 67.0136 193.82 66.4946 196.082 65.5061C200.026 63.7638 203.617 60.1063 204.903 56.5354C205.878 53.8046 205.977 51.4816 205.977 32.2304V15.8335H200.464H194.965L194.923 33.7131C194.866 53.7552 194.923 52.779 193.862 54.546C192.307 57.1285 188.391 58.5371 184.49 57.9193C181.408 57.4374 179.245 55.6951 178.468 53.0879C178.227 52.2724 178.213 51.1356 178.171 34.0221L178.114 15.8335H172.601H167.088L167.144 33.3425Z"/><path fill="#fff" d="M219.407 40.9045V66.0002H224.85H230.292L230.32 55.3985L230.363 44.8091L230.801 44.772C231.041 44.7473 231.296 44.8091 231.381 44.8956C231.451 44.9821 234.378 49.764 237.869 55.522L244.217 66.0002H250.196H256.176L255.328 64.604C254.861 63.8502 251.808 58.8335 248.542 53.4832L242.619 43.7464L242.987 43.6105C243.199 43.5364 243.962 43.2275 244.683 42.9433C250.479 40.5955 253.476 36.3326 253.476 30.4139C253.476 26.0521 251.808 22.3575 248.655 19.7256C246.04 17.5386 243.51 16.6613 238.293 16.1299C236.894 15.9817 234.335 15.9199 227.931 15.8704L219.407 15.8087V40.9045ZM237.629 25.3601C239.707 25.6196 241.078 26.2992 242.025 27.5843C242.732 28.5481 242.93 29.2895 242.845 30.7722C242.746 32.6628 242.054 33.7501 240.513 34.4544C238.93 35.1958 236.767 35.48 232.766 35.48H230.292V30.3768C230.292 27.5596 230.335 25.2242 230.405 25.1624C230.532 25.0389 236.244 25.1995 237.629 25.3601Z"/><path fill="#fff" d="M259.414 20.5288V25.2242H264.503H269.592V45.6122V66.0002H275.105H280.618L280.647 45.6369L280.689 25.286L285.891 25.2489L291.079 25.2242V20.5288V15.8334H275.247H259.414V20.5288Z"/><path fill="#fff" d="M305.145 40.8056C299.081 54.5459 294.091 65.8273 294.076 65.889C294.048 65.9508 296.423 65.9879 299.717 65.9755L305.414 65.9385L307.704 60.8723L309.994 55.8062H321.756H333.532L335.737 60.8971L337.942 66.0002H343.639C346.778 66.0002 349.308 65.9632 349.28 65.9014C349.251 65.852 344.275 54.5706 338.225 40.818L327.227 15.8334H321.699H316.172L305.145 40.8056ZM325.559 37.6671C327.608 42.276 329.319 46.1188 329.347 46.193C329.404 46.3165 327.835 46.3536 321.756 46.3536C314.518 46.3536 314.094 46.3413 314.179 46.1312C314.829 44.5619 321.713 29.3018 321.77 29.3018C321.812 29.3018 323.523 33.0705 325.559 37.6671Z"/><path fill="#fff" d="M369.58 70.5054C368.633 70.802 367.912 71.2962 367.417 71.9758C366.371 73.4092 366.569 75.139 367.898 76.4365C369.368 77.8574 372.266 77.8822 373.821 76.4859C375.404 75.0649 375.362 72.606 373.75 71.3209C372.577 70.3942 370.951 70.073 369.58 70.5054Z"/></svg>